<?xml version="1.0" encoding="utf-8"?>
<!-- Generator: Adobe Illustrator 15.0.2, SVG Export Plug-In . SVG Version: 6.00 Build 0)  -->
<!DOCTYPE svg PUBLIC "-//W3C//DTD SVG 1.1//EN" "http://www.w3.org/Graphics/SVG/1.1/DTD/svg11.dtd">
<svg version="1.1" id="svg2" xmlns:svg="http://www.w3.org/2000/svg"
	 xmlns="http://www.w3.org/2000/svg" xmlns:xlink="http://www.w3.org/1999/xlink" x="0px" y="0px" width="297.91px"
	 height="290.807px" viewBox="0 0 297.91 290.807" enable-background="new 0 0 297.91 290.807" xml:space="preserve">
<g id="layer1">
	
		<linearGradient id="path2890_1_" gradientUnits="userSpaceOnUse" x1="58.7534" y1="49.0559" x2="296.9303" y2="287.2328" gradientTransform="matrix(1 0 0 -1 0 291.8071)">
		<stop  offset="0" style="stop-color:#262626"/>
		<stop  offset="1" style="stop-color:#666666"/>
	</linearGradient>
	<path id="path2890" fill="url(#path2890_1_)" d="M119.723,280.644c-32.955-39.223-75.342-74.741-107.972-90.475
		c-6.438-3.104-11.705-5.869-11.704-6.146c0.003-1.142,82.273-50.03,82.959-49.299c0.41,0.4,9.6,18.102,20.5,39.207l19.779,38.408
		l4-8.908c15.729-35.025,42.594-80.965,65.154-111.407c25.16-33.95,54.188-63.05,80.487-80.684
		c7.859-5.271,18.189-11.317,19.33-11.317c1.127,0,0.802,6.236-1.45,24.753c-2.711,22.693-2.9,48.246-0.445,59.749
		c0.938,4.399,3,12,4.602,16.801c1.607,4.8,2.898,9,2.898,9.172s-1.688,0.912-3.75,1.58c-18.398,5.957-47.5,29.587-80.717,65.5
		c-28.441,30.787-58.297,69.496-76.879,99.676l-8.33,13.529L119.723,280.644L119.723,280.644z"/>
</g>
</svg>
